<svg xmlns="http://www.w3.org/2000/svg" width="32.302" height="33.309" viewBox="0 0 32.302 33.309">
  <g id="Group_2469"  transform="translate(-720.508 -1403.798)">
    <g id="Group_60"  transform="translate(22 95)">
      <path id="Path_1048"  d="M730.81,1328.2a13.9,13.9,0,1,0-13.9,13.905A13.905,13.905,0,0,0,730.81,1328.2Z" fill="#9f9d94" opacity="0"/>
      <path id="Path_1049"  d="M730.7,1328.068a13.9,13.9,0,1,0-13.9,13.905A13.905,13.905,0,0,0,730.7,1328.068Z" fill="#9f9d94" opacity="0.024"/>
      <path id="Path_1050"  d="M730.59,1327.934a13.9,13.9,0,1,0-13.9,13.905A13.905,13.905,0,0,0,730.59,1327.934Z" fill="#9f9d94" opacity="0.049"/>
      <path id="Path_1051"  d="M730.481,1327.8a13.9,13.9,0,1,0-13.9,13.9A13.905,13.905,0,0,0,730.481,1327.8Z" fill="#9f9d94" opacity="0.073"/>
      <path id="Path_1052"  d="M730.371,1327.666a13.9,13.9,0,1,0-13.9,13.905A13.905,13.905,0,0,0,730.371,1327.666Z" fill="#9f9d94" opacity="0.098"/>
      <path id="Path_1053"  d="M730.262,1327.532a13.9,13.9,0,1,0-13.9,13.9A13.906,13.906,0,0,0,730.262,1327.532Z" fill="#9f9d94" opacity="0.122"/>
      <path id="Path_1054"  d="M730.152,1327.4a13.9,13.9,0,1,0-13.9,13.9A13.905,13.905,0,0,0,730.152,1327.4Z" fill="#9f9d94" opacity="0.146"/>
      <path id="Path_1055"  d="M730.043,1327.263a13.905,13.905,0,1,0-13.9,13.905A13.905,13.905,0,0,0,730.043,1327.263Z" fill="#9f9d94" opacity="0.171"/>
      <path id="Path_1056"  d="M729.933,1327.129a13.9,13.9,0,1,0-13.9,13.905A13.905,13.905,0,0,0,729.933,1327.129Z" fill="#9f9d94" opacity="0.195"/>
      <path id="Path_1057"  d="M729.823,1326.995a13.9,13.9,0,1,0-13.9,13.905A13.9,13.9,0,0,0,729.823,1326.995Z" fill="#9f9d94" opacity="0.22"/>
      <path id="Path_1058"  d="M729.714,1326.861a13.9,13.9,0,1,0-13.9,13.905A13.905,13.905,0,0,0,729.714,1326.861Z" fill="#9f9d94" opacity="0.244"/>
      <path id="Path_1059"  d="M729.6,1326.727a13.9,13.9,0,1,0-13.9,13.9A13.905,13.905,0,0,0,729.6,1326.727Z" fill="#9f9d94" opacity="0.268"/>
      <path id="Path_1060"  d="M729.495,1326.593a13.9,13.9,0,1,0-13.9,13.9A13.905,13.905,0,0,0,729.495,1326.593Z" fill="#9f9d94" opacity="0.293"/>
      <path id="Path_1061"  d="M729.385,1326.459a13.9,13.9,0,1,0-13.9,13.9A13.905,13.905,0,0,0,729.385,1326.459Z" fill="#9f9d94" opacity="0.317"/>
      <path id="Path_1062"  d="M729.276,1326.325a13.9,13.9,0,1,0-13.9,13.9A13.905,13.905,0,0,0,729.276,1326.325Z" fill="#9f9d94" opacity="0.341"/>
      <path id="Path_1063"  d="M729.166,1326.19a13.9,13.9,0,1,0-13.9,13.905A13.9,13.9,0,0,0,729.166,1326.19Z" fill="#9f9d94" opacity="0.366"/>
      <path id="Path_1064"  d="M729.056,1326.056a13.9,13.9,0,1,0-13.9,13.905A13.905,13.905,0,0,0,729.056,1326.056Z" fill="#9f9d94" opacity="0.39"/>
      <path id="Path_1065"  d="M728.947,1325.922a13.9,13.9,0,1,0-13.9,13.905A13.906,13.906,0,0,0,728.947,1325.922Z" fill="#9f9d94" opacity="0.415"/>
      <path id="Path_1066"  d="M728.837,1325.788a13.9,13.9,0,1,0-13.9,13.905A13.905,13.905,0,0,0,728.837,1325.788Z" fill="#9f9d94" opacity="0.439"/>
      <path id="Path_1067"  d="M728.728,1325.654a13.9,13.9,0,1,0-13.9,13.9A13.905,13.905,0,0,0,728.728,1325.654Z" fill="#9f9d94" opacity="0.463"/>
      <path id="Path_1068"  d="M728.618,1325.52a13.9,13.9,0,1,0-13.9,13.9A13.905,13.905,0,0,0,728.618,1325.52Z" fill="#9f9d94" opacity="0.488"/>
      <path id="Path_1069"  d="M728.509,1325.386a13.9,13.9,0,1,0-13.9,13.9A13.905,13.905,0,0,0,728.509,1325.386Z" fill="#9f9d94" opacity="0.512"/>
      <path id="Path_1070"  d="M728.4,1325.251a13.9,13.9,0,1,0-13.9,13.905A13.9,13.9,0,0,0,728.4,1325.251Z" fill="#9f9d94" opacity="0.537"/>
      <path id="Path_1071"  d="M728.289,1325.117a13.9,13.9,0,1,0-13.9,13.905A13.9,13.9,0,0,0,728.289,1325.117Z" fill="#9f9d94" opacity="0.561"/>
      <path id="Path_1072"  d="M728.18,1324.983a13.9,13.9,0,1,0-13.9,13.9A13.9,13.9,0,0,0,728.18,1324.983Z" fill="#9f9d94" opacity="0.585"/>
      <path id="Path_1073"  d="M728.07,1324.849a13.9,13.9,0,1,0-13.9,13.905A13.905,13.905,0,0,0,728.07,1324.849Z" fill="#9f9d94" opacity="0.61"/>
      <path id="Path_1074"  d="M727.961,1324.715a13.9,13.9,0,1,0-13.9,13.905A13.905,13.905,0,0,0,727.961,1324.715Z" fill="#9f9d94" opacity="0.634"/>
      <path id="Path_1075"  d="M727.851,1324.581a13.9,13.9,0,1,0-13.9,13.9A13.905,13.905,0,0,0,727.851,1324.581Z" fill="#9f9d94" opacity="0.659"/>
      <path id="Path_1076"  d="M727.742,1324.447a13.9,13.9,0,1,0-13.9,13.9A13.905,13.905,0,0,0,727.742,1324.447Z" fill="#9f9d94" opacity="0.683"/>
      <path id="Path_1077"  d="M727.632,1324.313a13.9,13.9,0,1,0-13.9,13.9A13.905,13.905,0,0,0,727.632,1324.313Z" fill="#9f9d94" opacity="0.707"/>
      <path id="Path_1078"  d="M727.522,1324.178a13.9,13.9,0,1,0-13.9,13.905A13.9,13.9,0,0,0,727.522,1324.178Z" fill="#9f9d94" opacity="0.732"/>
      <path id="Path_1079"  d="M727.413,1324.044a13.9,13.9,0,1,0-13.9,13.905A13.905,13.905,0,0,0,727.413,1324.044Z" fill="#9f9d94" opacity="0.756"/>
      <path id="Path_1080"  d="M727.3,1323.91a13.9,13.9,0,1,0-13.9,13.9A13.905,13.905,0,0,0,727.3,1323.91Z" fill="#9f9d94" opacity="0.78"/>
      <path id="Path_1081"  d="M727.194,1323.776a13.9,13.9,0,1,0-13.9,13.905A13.905,13.905,0,0,0,727.194,1323.776Z" fill="#9f9d94" opacity="0.805"/>
      <path id="Path_1082"  d="M727.084,1323.642a13.9,13.9,0,1,0-13.9,13.9A13.905,13.905,0,0,0,727.084,1323.642Z" fill="#9f9d94" opacity="0.829"/>
      <path id="Path_1083"  d="M726.974,1323.508a13.9,13.9,0,1,0-13.9,13.9A13.9,13.9,0,0,0,726.974,1323.508Z" fill="#9f9d94" opacity="0.854"/>
      <path id="Path_1084"  d="M726.865,1323.374a13.9,13.9,0,1,0-13.9,13.9A13.905,13.905,0,0,0,726.865,1323.374Z" fill="#9f9d94" opacity="0.878"/>
      <path id="Path_1085"  d="M726.755,1323.239a13.9,13.9,0,1,0-13.9,13.905A13.905,13.905,0,0,0,726.755,1323.239Z" fill="#9f9d94" opacity="0.902"/>
      <path id="Path_1086"  d="M726.646,1323.1a13.9,13.9,0,1,0-13.9,13.905A13.905,13.905,0,0,0,726.646,1323.1Z" fill="#9f9d94" opacity="0.927"/>
      <path id="Path_1087"  d="M726.536,1322.971a13.9,13.9,0,1,0-13.9,13.905A13.9,13.9,0,0,0,726.536,1322.971Z" fill="#9f9d94" opacity="0.951"/>
      <path id="Path_1088"  d="M726.427,1322.837a13.9,13.9,0,1,0-13.9,13.9A13.905,13.905,0,0,0,726.427,1322.837Z" fill="#9f9d94" opacity="0.976"/>
      <path id="Path_1089"  d="M726.317,1322.7a13.9,13.9,0,1,0-13.9,13.905A13.905,13.905,0,0,0,726.317,1322.7Z" fill="#9f9d94"/>
    </g>
    <g id="Group_2468"  transform="translate(22 95)">
      <g id="Group_61" >
        <g id="Group_2466" >
          <g id="Group_2465" >
            <path id="Path_1090"  d="M726.317,1322.7a13.9,13.9,0,1,0-13.9,13.905A13.905,13.905,0,0,0,726.317,1322.7Z" fill="#fe5c12"/>
          </g>
        </g>
      </g>
    </g>
    <g id="Group_2467"  transform="translate(22 95)">
      <g id="Group_63" >
        <path id="Path_1091"  d="M720.92,1316.409a2.09,2.09,0,0,0-1.563-.717H706.015a2.079,2.079,0,0,0-1.328.506l8.223,8.223Z" fill="#fff"/>
        <path id="Path_1092"  d="M713.344,1325.724a.614.614,0,0,1-.869,0l-8.466-8.467a2.038,2.038,0,0,0-.112.552v9.115a2.118,2.118,0,0,0,2.118,2.117h13.342a2.117,2.117,0,0,0,2.118-2.117v-9.115c0-.064-.031-.118-.037-.181Z" fill="#fff"/>
      </g>
    </g>
  </g>
</svg>
