<svg xmlns="http://www.w3.org/2000/svg" width="32.302" height="33.309" viewBox="0 0 32.302 33.309">
  <g id="Group_56"  transform="translate(-629.908 -1308.798)">
    <g id="Group_54" >
      <path id="Path_960"  d="M662.21,1328.2a13.9,13.9,0,1,0-13.9,13.906A13.9,13.9,0,0,0,662.21,1328.2Z" fill="#9f9d94" opacity="0"/>
      <path id="Path_961"  d="M662.1,1328.067a13.9,13.9,0,1,0-13.9,13.906A13.9,13.9,0,0,0,662.1,1328.067Z" fill="#9f9d94" opacity="0.024"/>
      <path id="Path_962"  d="M661.99,1327.933a13.9,13.9,0,1,0-13.9,13.906A13.9,13.9,0,0,0,661.99,1327.933Z" fill="#9f9d94" opacity="0.049"/>
      <path id="Path_963"  d="M661.881,1327.8a13.9,13.9,0,1,0-13.9,13.906A13.9,13.9,0,0,0,661.881,1327.8Z" fill="#9f9d94" opacity="0.073"/>
      <path id="Path_964"  d="M661.771,1327.665a13.9,13.9,0,1,0-13.9,13.9A13.9,13.9,0,0,0,661.771,1327.665Z" fill="#9f9d94" opacity="0.098"/>
      <path id="Path_965"  d="M661.662,1327.531a13.9,13.9,0,1,0-13.9,13.905A13.9,13.9,0,0,0,661.662,1327.531Z" fill="#9f9d94" opacity="0.122"/>
      <path id="Path_966"  d="M661.552,1327.4a13.9,13.9,0,1,0-13.9,13.905A13.9,13.9,0,0,0,661.552,1327.4Z" fill="#9f9d94" opacity="0.146"/>
      <path id="Path_967"  d="M661.443,1327.262a13.9,13.9,0,1,0-13.9,13.906A13.9,13.9,0,0,0,661.443,1327.262Z" fill="#9f9d94" opacity="0.171"/>
      <path id="Path_968"  d="M661.333,1327.128a13.9,13.9,0,1,0-13.9,13.906A13.9,13.9,0,0,0,661.333,1327.128Z" fill="#9f9d94" opacity="0.195"/>
      <path id="Path_969"  d="M661.223,1326.994a13.9,13.9,0,1,0-13.9,13.906A13.9,13.9,0,0,0,661.223,1326.994Z" fill="#9f9d94" opacity="0.22"/>
      <path id="Path_970"  d="M661.114,1326.86a13.9,13.9,0,1,0-13.9,13.906A13.9,13.9,0,0,0,661.114,1326.86Z" fill="#9f9d94" opacity="0.244"/>
      <path id="Path_971"  d="M661,1326.726a13.9,13.9,0,1,0-13.9,13.905A13.9,13.9,0,0,0,661,1326.726Z" fill="#9f9d94" opacity="0.268"/>
      <path id="Path_972"  d="M660.9,1326.592a13.9,13.9,0,1,0-13.9,13.9A13.9,13.9,0,0,0,660.9,1326.592Z" fill="#9f9d94" opacity="0.293"/>
      <path id="Path_973"  d="M660.785,1326.458a13.9,13.9,0,1,0-13.9,13.905A13.9,13.9,0,0,0,660.785,1326.458Z" fill="#9f9d94" opacity="0.317"/>
      <path id="Path_974"  d="M660.676,1326.324a13.9,13.9,0,1,0-13.9,13.905A13.9,13.9,0,0,0,660.676,1326.324Z" fill="#9f9d94" opacity="0.341"/>
      <path id="Path_975"  d="M660.566,1326.189a13.9,13.9,0,1,0-13.9,13.906A13.9,13.9,0,0,0,660.566,1326.189Z" fill="#9f9d94" opacity="0.366"/>
      <path id="Path_976"  d="M660.456,1326.055a13.9,13.9,0,1,0-13.9,13.906A13.9,13.9,0,0,0,660.456,1326.055Z" fill="#9f9d94" opacity="0.39"/>
      <path id="Path_977"  d="M660.347,1325.921a13.9,13.9,0,1,0-13.9,13.906A13.9,13.9,0,0,0,660.347,1325.921Z" fill="#9f9d94" opacity="0.415"/>
      <path id="Path_978"  d="M660.237,1325.787a13.9,13.9,0,1,0-13.9,13.906A13.9,13.9,0,0,0,660.237,1325.787Z" fill="#9f9d94" opacity="0.439"/>
      <path id="Path_979"  d="M660.128,1325.653a13.9,13.9,0,1,0-13.9,13.905A13.9,13.9,0,0,0,660.128,1325.653Z" fill="#9f9d94" opacity="0.463"/>
      <path id="Path_980"  d="M660.018,1325.519a13.9,13.9,0,1,0-13.9,13.9A13.9,13.9,0,0,0,660.018,1325.519Z" fill="#9f9d94" opacity="0.488"/>
      <path id="Path_981"  d="M659.909,1325.385a13.9,13.9,0,1,0-13.9,13.905A13.9,13.9,0,0,0,659.909,1325.385Z" fill="#9f9d94" opacity="0.512"/>
      <path id="Path_982"  d="M659.8,1325.25a13.9,13.9,0,1,0-13.9,13.906A13.9,13.9,0,0,0,659.8,1325.25Z" fill="#9f9d94" opacity="0.537"/>
      <path id="Path_983"  d="M659.689,1325.116a13.9,13.9,0,1,0-13.9,13.906A13.9,13.9,0,0,0,659.689,1325.116Z" fill="#9f9d94" opacity="0.561"/>
      <path id="Path_984"  d="M659.58,1324.982a13.9,13.9,0,1,0-13.9,13.906A13.9,13.9,0,0,0,659.58,1324.982Z" fill="#9f9d94" opacity="0.585"/>
      <path id="Path_985"  d="M659.47,1324.848a13.9,13.9,0,1,0-13.9,13.906A13.9,13.9,0,0,0,659.47,1324.848Z" fill="#9f9d94" opacity="0.61"/>
      <path id="Path_986"  d="M659.361,1324.714a13.9,13.9,0,1,0-13.9,13.905A13.9,13.9,0,0,0,659.361,1324.714Z" fill="#9f9d94" opacity="0.634"/>
      <path id="Path_987"  d="M659.251,1324.58a13.9,13.9,0,1,0-13.9,13.905A13.9,13.9,0,0,0,659.251,1324.58Z" fill="#9f9d94" opacity="0.659"/>
      <path id="Path_988"  d="M659.142,1324.446a13.9,13.9,0,1,0-13.9,13.9A13.9,13.9,0,0,0,659.142,1324.446Z" fill="#9f9d94" opacity="0.683"/>
      <path id="Path_989"  d="M659.032,1324.312a13.9,13.9,0,1,0-13.9,13.905A13.9,13.9,0,0,0,659.032,1324.312Z" fill="#9f9d94" opacity="0.707"/>
      <path id="Path_990"  d="M658.922,1324.177a13.9,13.9,0,1,0-13.9,13.906A13.9,13.9,0,0,0,658.922,1324.177Z" fill="#9f9d94" opacity="0.732"/>
      <path id="Path_991"  d="M658.813,1324.043a13.9,13.9,0,1,0-13.9,13.906A13.9,13.9,0,0,0,658.813,1324.043Z" fill="#9f9d94" opacity="0.756"/>
      <path id="Path_992"  d="M658.7,1323.909a13.9,13.9,0,1,0-13.9,13.906A13.9,13.9,0,0,0,658.7,1323.909Z" fill="#9f9d94" opacity="0.78"/>
      <path id="Path_993"  d="M658.594,1323.775a13.9,13.9,0,1,0-13.9,13.905A13.9,13.9,0,0,0,658.594,1323.775Z" fill="#9f9d94" opacity="0.805"/>
      <path id="Path_994"  d="M658.484,1323.641a13.9,13.9,0,1,0-13.9,13.905A13.9,13.9,0,0,0,658.484,1323.641Z" fill="#9f9d94" opacity="0.829"/>
      <path id="Path_995"  d="M658.375,1323.507a13.9,13.9,0,1,0-13.9,13.905A13.9,13.9,0,0,0,658.375,1323.507Z" fill="#9f9d94" opacity="0.854"/>
      <path id="Path_996"  d="M658.265,1323.373a13.9,13.9,0,1,0-13.9,13.9A13.9,13.9,0,0,0,658.265,1323.373Z" fill="#9f9d94" opacity="0.878"/>
      <path id="Path_997"  d="M658.155,1323.238a13.9,13.9,0,1,0-13.9,13.906A13.9,13.9,0,0,0,658.155,1323.238Z" fill="#9f9d94" opacity="0.902"/>
      <path id="Path_998"  d="M658.046,1323.1a13.9,13.9,0,1,0-13.9,13.906A13.9,13.9,0,0,0,658.046,1323.1Z" fill="#9f9d94" opacity="0.927"/>
      <path id="Path_999"  d="M657.936,1322.97a13.9,13.9,0,1,0-13.9,13.906A13.9,13.9,0,0,0,657.936,1322.97Z" fill="#9f9d94" opacity="0.951"/>
      <path id="Path_1000"  d="M657.827,1322.836a13.9,13.9,0,1,0-13.9,13.906A13.9,13.9,0,0,0,657.827,1322.836Z" fill="#9f9d94" opacity="0.976"/>
      <path id="Path_1001"  d="M657.717,1322.7a13.9,13.9,0,1,0-13.9,13.905A13.9,13.9,0,0,0,657.717,1322.7Z" fill="#9f9d94"/>
    </g>
    <g id="Group_55" >
      <path id="Path_1002"  d="M657.717,1322.7a13.9,13.9,0,1,0-13.9,13.905A13.9,13.9,0,0,0,657.717,1322.7Z" fill="#e40007"/>
      <rect id="Rectangle_18"  width="13.993" height="10.262" rx="5.131" transform="translate(636.817 1317.573)" fill="#fff"/>
      <path id="Path_1003"  d="M646.657,1322.735l-4.673,2.524a.234.234,0,0,1-.346-.206l0-5.069a.234.234,0,0,1,.346-.206l4.676,2.545A.234.234,0,0,1,646.657,1322.735Z" fill="#f00601"/>
    </g>
  </g>
</svg>
