<svg xmlns="http://www.w3.org/2000/svg" width="32.302" height="33.309" viewBox="0 0 32.302 33.309">
  <g id="Group_59"  transform="translate(-663.987 -1308.798)">
    <g id="Group_57" >
      <path id="Path_1004"  d="M696.289,1328.2a13.9,13.9,0,1,0-13.9,13.905A13.905,13.905,0,0,0,696.289,1328.2Z" fill="#9f9d94" opacity="0"/>
      <path id="Path_1005"  d="M696.18,1328.068a13.9,13.9,0,1,0-13.9,13.905A13.905,13.905,0,0,0,696.18,1328.068Z" fill="#9f9d94" opacity="0.024"/>
      <path id="Path_1006"  d="M696.07,1327.934a13.9,13.9,0,1,0-13.9,13.905A13.905,13.905,0,0,0,696.07,1327.934Z" fill="#9f9d94" opacity="0.049"/>
      <path id="Path_1007"  d="M695.96,1327.8a13.9,13.9,0,1,0-13.9,13.9A13.905,13.905,0,0,0,695.96,1327.8Z" fill="#9f9d94" opacity="0.073"/>
      <path id="Path_1008"  d="M695.851,1327.666a13.9,13.9,0,1,0-13.9,13.905A13.906,13.906,0,0,0,695.851,1327.666Z" fill="#9f9d94" opacity="0.098"/>
      <path id="Path_1009"  d="M695.741,1327.532a13.9,13.9,0,1,0-13.9,13.9A13.905,13.905,0,0,0,695.741,1327.532Z" fill="#9f9d94" opacity="0.122"/>
      <path id="Path_1010"  d="M695.632,1327.4a13.9,13.9,0,1,0-13.9,13.9A13.905,13.905,0,0,0,695.632,1327.4Z" fill="#9f9d94" opacity="0.146"/>
      <path id="Path_1011"  d="M695.522,1327.263a13.9,13.9,0,1,0-13.9,13.905A13.905,13.905,0,0,0,695.522,1327.263Z" fill="#9f9d94" opacity="0.171"/>
      <path id="Path_1012"  d="M695.413,1327.129a13.9,13.9,0,1,0-13.9,13.905A13.905,13.905,0,0,0,695.413,1327.129Z" fill="#9f9d94" opacity="0.195"/>
      <path id="Path_1013"  d="M695.3,1326.995a13.9,13.9,0,1,0-13.9,13.905A13.9,13.9,0,0,0,695.3,1326.995Z" fill="#9f9d94" opacity="0.22"/>
      <path id="Path_1014"  d="M695.193,1326.861a13.9,13.9,0,1,0-13.9,13.905A13.905,13.905,0,0,0,695.193,1326.861Z" fill="#9f9d94" opacity="0.244"/>
      <path id="Path_1015"  d="M695.084,1326.727a13.9,13.9,0,1,0-13.9,13.9A13.905,13.905,0,0,0,695.084,1326.727Z" fill="#9f9d94" opacity="0.268"/>
      <path id="Path_1016"  d="M694.974,1326.593a13.9,13.9,0,1,0-13.9,13.9A13.905,13.905,0,0,0,694.974,1326.593Z" fill="#9f9d94" opacity="0.293"/>
      <path id="Path_1017"  d="M694.865,1326.459a13.9,13.9,0,1,0-13.9,13.9A13.905,13.905,0,0,0,694.865,1326.459Z" fill="#9f9d94" opacity="0.317"/>
      <path id="Path_1018"  d="M694.755,1326.325a13.9,13.9,0,1,0-13.9,13.9A13.905,13.905,0,0,0,694.755,1326.325Z" fill="#9f9d94" opacity="0.341"/>
      <path id="Path_1019"  d="M694.645,1326.19a13.9,13.9,0,1,0-13.9,13.905A13.9,13.9,0,0,0,694.645,1326.19Z" fill="#9f9d94" opacity="0.366"/>
      <path id="Path_1020"  d="M694.536,1326.056a13.9,13.9,0,1,0-13.9,13.905A13.905,13.905,0,0,0,694.536,1326.056Z" fill="#9f9d94" opacity="0.39"/>
      <path id="Path_1021"  d="M694.426,1325.922a13.9,13.9,0,1,0-13.9,13.905A13.905,13.905,0,0,0,694.426,1325.922Z" fill="#9f9d94" opacity="0.415"/>
      <path id="Path_1022"  d="M694.317,1325.788a13.9,13.9,0,1,0-13.9,13.905A13.905,13.905,0,0,0,694.317,1325.788Z" fill="#9f9d94" opacity="0.439"/>
      <path id="Path_1023"  d="M694.207,1325.654a13.9,13.9,0,1,0-13.9,13.9A13.905,13.905,0,0,0,694.207,1325.654Z" fill="#9f9d94" opacity="0.463"/>
      <path id="Path_1024"  d="M694.1,1325.52a13.9,13.9,0,1,0-13.9,13.9A13.906,13.906,0,0,0,694.1,1325.52Z" fill="#9f9d94" opacity="0.488"/>
      <path id="Path_1025"  d="M693.988,1325.386a13.9,13.9,0,1,0-13.9,13.9A13.905,13.905,0,0,0,693.988,1325.386Z" fill="#9f9d94" opacity="0.512"/>
      <path id="Path_1026"  d="M693.878,1325.251a13.9,13.9,0,1,0-13.9,13.905A13.9,13.9,0,0,0,693.878,1325.251Z" fill="#9f9d94" opacity="0.537"/>
      <path id="Path_1027"  d="M693.769,1325.117a13.9,13.9,0,1,0-13.9,13.905A13.905,13.905,0,0,0,693.769,1325.117Z" fill="#9f9d94" opacity="0.561"/>
      <path id="Path_1028"  d="M693.659,1324.983a13.9,13.9,0,1,0-13.9,13.9A13.9,13.9,0,0,0,693.659,1324.983Z" fill="#9f9d94" opacity="0.585"/>
      <path id="Path_1029"  d="M693.55,1324.849a13.9,13.9,0,1,0-13.9,13.905A13.905,13.905,0,0,0,693.55,1324.849Z" fill="#9f9d94" opacity="0.61"/>
      <path id="Path_1030"  d="M693.44,1324.715a13.9,13.9,0,1,0-13.9,13.905A13.905,13.905,0,0,0,693.44,1324.715Z" fill="#9f9d94" opacity="0.634"/>
      <path id="Path_1031"  d="M693.331,1324.581a13.9,13.9,0,1,0-13.9,13.9A13.905,13.905,0,0,0,693.331,1324.581Z" fill="#9f9d94" opacity="0.659"/>
      <path id="Path_1032"  d="M693.221,1324.447a13.9,13.9,0,1,0-13.9,13.9A13.905,13.905,0,0,0,693.221,1324.447Z" fill="#9f9d94" opacity="0.683"/>
      <path id="Path_1033"  d="M693.111,1324.313a13.9,13.9,0,1,0-13.9,13.9A13.9,13.9,0,0,0,693.111,1324.313Z" fill="#9f9d94" opacity="0.707"/>
      <path id="Path_1034"  d="M693,1324.178a13.9,13.9,0,1,0-13.9,13.905A13.905,13.905,0,0,0,693,1324.178Z" fill="#9f9d94" opacity="0.732"/>
      <path id="Path_1035"  d="M692.892,1324.044a13.9,13.9,0,1,0-13.9,13.905A13.9,13.9,0,0,0,692.892,1324.044Z" fill="#9f9d94" opacity="0.756"/>
      <path id="Path_1036"  d="M692.783,1323.91a13.9,13.9,0,1,0-13.9,13.9A13.906,13.906,0,0,0,692.783,1323.91Z" fill="#9f9d94" opacity="0.78"/>
      <path id="Path_1037"  d="M692.673,1323.776a13.9,13.9,0,1,0-13.9,13.905A13.905,13.905,0,0,0,692.673,1323.776Z" fill="#9f9d94" opacity="0.805"/>
      <path id="Path_1038"  d="M692.564,1323.642a13.9,13.9,0,1,0-13.9,13.9A13.905,13.905,0,0,0,692.564,1323.642Z" fill="#9f9d94" opacity="0.829"/>
      <path id="Path_1039"  d="M692.454,1323.508a13.9,13.9,0,1,0-13.9,13.9A13.905,13.905,0,0,0,692.454,1323.508Z" fill="#9f9d94" opacity="0.854"/>
      <path id="Path_1040"  d="M692.344,1323.374a13.9,13.9,0,1,0-13.9,13.9A13.905,13.905,0,0,0,692.344,1323.374Z" fill="#9f9d94" opacity="0.878"/>
      <path id="Path_1041"  d="M692.235,1323.239a13.9,13.9,0,1,0-13.9,13.905A13.905,13.905,0,0,0,692.235,1323.239Z" fill="#9f9d94" opacity="0.902"/>
      <path id="Path_1042"  d="M692.125,1323.1a13.9,13.9,0,1,0-13.9,13.905A13.9,13.9,0,0,0,692.125,1323.1Z" fill="#9f9d94" opacity="0.927"/>
      <path id="Path_1043"  d="M692.016,1322.971a13.9,13.9,0,1,0-13.9,13.905A13.9,13.9,0,0,0,692.016,1322.971Z" fill="#9f9d94" opacity="0.951"/>
      <path id="Path_1044"  d="M691.906,1322.837a13.9,13.9,0,1,0-13.9,13.9A13.905,13.905,0,0,0,691.906,1322.837Z" fill="#9f9d94" opacity="0.976"/>
      <path id="Path_1045"  d="M691.8,1322.7a13.9,13.9,0,1,0-13.9,13.905A13.905,13.905,0,0,0,691.8,1322.7Z" fill="#9f9d94"/>
    </g>
    <g id="Group_58" >
      <path id="Path_1046"  d="M691.8,1322.7a13.9,13.9,0,1,0-13.9,13.905A13.905,13.905,0,0,0,691.8,1322.7Z" fill="#5193c3"/>
      <path id="Path_1047"  d="M685.961,1318.531a6.879,6.879,0,0,1-1.775.453,3.338,3.338,0,0,0,1.44-1.709.052.052,0,0,0-.075-.063,6.8,6.8,0,0,1-2.025.739,3.4,3.4,0,0,0-2.467-1.05,3.325,3.325,0,0,0-3.291,4.084,9.65,9.65,0,0,1-6.948-3.455.019.019,0,0,0-.031,0,3.293,3.293,0,0,0,1,4.377.02.02,0,0,1-.013.037,3.4,3.4,0,0,1-1.431-.4.017.017,0,0,0-.026.015,4.483,4.483,0,0,0,.228,1.218,3.413,3.413,0,0,0,2.483,2.057,3.556,3.556,0,0,1-.893.117,3.378,3.378,0,0,1-.6-.056.019.019,0,0,0-.022.025,3.379,3.379,0,0,0,3.09,2.277.021.021,0,0,1,.012.037,6.841,6.841,0,0,1-4.152,1.39,6.917,6.917,0,0,1-.8-.046,9.684,9.684,0,0,0,5.18,1.494,9.414,9.414,0,0,0,6.33-2.285,9.765,9.765,0,0,0,3.055-5.171,9.174,9.174,0,0,0,.231-2.008c0-.143,0-.287-.011-.43a6.759,6.759,0,0,0,1.582-1.575A.051.051,0,0,0,685.961,1318.531Z" fill="#fff"/>
    </g>
  </g>
</svg>
