<svg xmlns="http://www.w3.org/2000/svg" width="32.302" height="33.309" viewBox="0 0 32.302 33.309">
  <g id="Group_53"  transform="translate(-629.908 -1276.362)">
    <g id="Group_51" >
      <path id="Path_916"  d="M662.21,1295.765a13.9,13.9,0,1,0-13.9,13.906A13.9,13.9,0,0,0,662.21,1295.765Z" fill="#9f9d94" opacity="0"/>
      <path id="Path_917"  d="M662.1,1295.631a13.9,13.9,0,1,0-13.905,13.905A13.9,13.9,0,0,0,662.1,1295.631Z" fill="#9f9d94" opacity="0.024"/>
      <path id="Path_918"  d="M661.991,1295.5a13.9,13.9,0,1,0-13.905,13.905A13.9,13.9,0,0,0,661.991,1295.5Z" fill="#9f9d94" opacity="0.049"/>
      <path id="Path_919"  d="M661.882,1295.363a13.9,13.9,0,1,0-13.905,13.9A13.9,13.9,0,0,0,661.882,1295.363Z" fill="#9f9d94" opacity="0.073"/>
      <path id="Path_920"  d="M661.772,1295.228a13.9,13.9,0,1,0-13.9,13.906A13.9,13.9,0,0,0,661.772,1295.228Z" fill="#9f9d94" opacity="0.098"/>
      <path id="Path_921"  d="M661.662,1295.094a13.9,13.9,0,1,0-13.9,13.906A13.9,13.9,0,0,0,661.662,1295.094Z" fill="#9f9d94" opacity="0.122"/>
      <path id="Path_922"  d="M661.553,1294.96a13.9,13.9,0,1,0-13.9,13.906A13.9,13.9,0,0,0,661.553,1294.96Z" fill="#9f9d94" opacity="0.146"/>
      <path id="Path_923"  d="M661.443,1294.826a13.9,13.9,0,1,0-13.9,13.906A13.9,13.9,0,0,0,661.443,1294.826Z" fill="#9f9d94" opacity="0.171"/>
      <path id="Path_924"  d="M661.334,1294.692a13.9,13.9,0,1,0-13.9,13.905A13.9,13.9,0,0,0,661.334,1294.692Z" fill="#9f9d94" opacity="0.195"/>
      <path id="Path_925"  d="M661.224,1294.558a13.9,13.9,0,1,0-13.905,13.905A13.9,13.9,0,0,0,661.224,1294.558Z" fill="#9f9d94" opacity="0.22"/>
      <path id="Path_926"  d="M661.114,1294.424a13.9,13.9,0,1,0-13.9,13.905A13.9,13.9,0,0,0,661.114,1294.424Z" fill="#9f9d94" opacity="0.244"/>
      <path id="Path_927"  d="M661.005,1294.29a13.9,13.9,0,1,0-13.905,13.9A13.9,13.9,0,0,0,661.005,1294.29Z" fill="#9f9d94" opacity="0.268"/>
      <path id="Path_928"  d="M660.9,1294.155a13.9,13.9,0,1,0-13.9,13.906A13.9,13.9,0,0,0,660.9,1294.155Z" fill="#9f9d94" opacity="0.293"/>
      <path id="Path_929"  d="M660.786,1294.021a13.9,13.9,0,1,0-13.905,13.906A13.9,13.9,0,0,0,660.786,1294.021Z" fill="#9f9d94" opacity="0.317"/>
      <path id="Path_930"  d="M660.676,1293.887a13.9,13.9,0,1,0-13.9,13.906A13.9,13.9,0,0,0,660.676,1293.887Z" fill="#9f9d94" opacity="0.341"/>
      <path id="Path_931"  d="M660.567,1293.753a13.9,13.9,0,1,0-13.905,13.906A13.9,13.9,0,0,0,660.567,1293.753Z" fill="#9f9d94" opacity="0.366"/>
      <path id="Path_932"  d="M660.457,1293.619a13.9,13.9,0,1,0-13.9,13.905A13.9,13.9,0,0,0,660.457,1293.619Z" fill="#9f9d94" opacity="0.39"/>
      <path id="Path_933"  d="M660.347,1293.485a13.9,13.9,0,1,0-13.9,13.905A13.9,13.9,0,0,0,660.347,1293.485Z" fill="#9f9d94" opacity="0.415"/>
      <path id="Path_934"  d="M660.238,1293.351a13.9,13.9,0,1,0-13.9,13.905A13.9,13.9,0,0,0,660.238,1293.351Z" fill="#9f9d94" opacity="0.439"/>
      <path id="Path_935"  d="M660.128,1293.216a13.9,13.9,0,1,0-13.9,13.906A13.9,13.9,0,0,0,660.128,1293.216Z" fill="#9f9d94" opacity="0.463"/>
      <path id="Path_936"  d="M660.019,1293.082a13.9,13.9,0,1,0-13.9,13.906A13.9,13.9,0,0,0,660.019,1293.082Z" fill="#9f9d94" opacity="0.488"/>
      <path id="Path_937"  d="M659.909,1292.948a13.9,13.9,0,1,0-13.9,13.906A13.9,13.9,0,0,0,659.909,1292.948Z" fill="#9f9d94" opacity="0.512"/>
      <path id="Path_938"  d="M659.8,1292.814a13.9,13.9,0,1,0-13.9,13.906A13.9,13.9,0,0,0,659.8,1292.814Z" fill="#9f9d94" opacity="0.537"/>
      <path id="Path_939"  d="M659.69,1292.68a13.9,13.9,0,1,0-13.905,13.9A13.9,13.9,0,0,0,659.69,1292.68Z" fill="#9f9d94" opacity="0.561"/>
      <path id="Path_940"  d="M659.58,1292.546a13.9,13.9,0,1,0-13.9,13.905A13.9,13.9,0,0,0,659.58,1292.546Z" fill="#9f9d94" opacity="0.585"/>
      <path id="Path_941"  d="M659.471,1292.412a13.9,13.9,0,1,0-13.905,13.905A13.9,13.9,0,0,0,659.471,1292.412Z" fill="#9f9d94" opacity="0.61"/>
      <path id="Path_942"  d="M659.361,1292.278a13.9,13.9,0,1,0-13.9,13.905A13.9,13.9,0,0,0,659.361,1292.278Z" fill="#9f9d94" opacity="0.634"/>
      <path id="Path_943"  d="M659.252,1292.143a13.9,13.9,0,1,0-13.905,13.906A13.9,13.9,0,0,0,659.252,1292.143Z" fill="#9f9d94" opacity="0.659"/>
      <path id="Path_944"  d="M659.142,1292.009a13.9,13.9,0,1,0-13.905,13.906A13.9,13.9,0,0,0,659.142,1292.009Z" fill="#9f9d94" opacity="0.683"/>
      <path id="Path_945"  d="M659.033,1291.875a13.9,13.9,0,1,0-13.905,13.906A13.9,13.9,0,0,0,659.033,1291.875Z" fill="#9f9d94" opacity="0.707"/>
      <path id="Path_946"  d="M658.923,1291.741a13.9,13.9,0,1,0-13.9,13.906A13.9,13.9,0,0,0,658.923,1291.741Z" fill="#9f9d94" opacity="0.732"/>
      <path id="Path_947"  d="M658.813,1291.607a13.9,13.9,0,1,0-13.9,13.9A13.9,13.9,0,0,0,658.813,1291.607Z" fill="#9f9d94" opacity="0.756"/>
      <path id="Path_948"  d="M658.7,1291.473a13.9,13.9,0,1,0-13.9,13.905A13.9,13.9,0,0,0,658.7,1291.473Z" fill="#9f9d94" opacity="0.78"/>
      <path id="Path_949"  d="M658.594,1291.339a13.9,13.9,0,1,0-13.9,13.905A13.9,13.9,0,0,0,658.594,1291.339Z" fill="#9f9d94" opacity="0.805"/>
      <path id="Path_950"  d="M658.485,1291.2a13.9,13.9,0,1,0-13.9,13.906A13.9,13.9,0,0,0,658.485,1291.2Z" fill="#9f9d94" opacity="0.829"/>
      <path id="Path_951"  d="M658.375,1291.07a13.9,13.9,0,1,0-13.905,13.906A13.9,13.9,0,0,0,658.375,1291.07Z" fill="#9f9d94" opacity="0.854"/>
      <path id="Path_952"  d="M658.266,1290.936a13.9,13.9,0,1,0-13.9,13.906A13.9,13.9,0,0,0,658.266,1290.936Z" fill="#9f9d94" opacity="0.878"/>
      <path id="Path_953"  d="M658.156,1290.8a13.9,13.9,0,1,0-13.905,13.906A13.9,13.9,0,0,0,658.156,1290.8Z" fill="#9f9d94" opacity="0.902"/>
      <path id="Path_954"  d="M658.046,1290.668a13.9,13.9,0,1,0-13.9,13.905A13.9,13.9,0,0,0,658.046,1290.668Z" fill="#9f9d94" opacity="0.927"/>
      <path id="Path_955"  d="M657.937,1290.534a13.9,13.9,0,1,0-13.905,13.9A13.9,13.9,0,0,0,657.937,1290.534Z" fill="#9f9d94" opacity="0.951"/>
      <path id="Path_956"  d="M657.827,1290.4a13.9,13.9,0,1,0-13.9,13.905A13.9,13.9,0,0,0,657.827,1290.4Z" fill="#9f9d94" opacity="0.976"/>
      <path id="Path_957"  d="M657.718,1290.266a13.9,13.9,0,1,0-13.905,13.905A13.9,13.9,0,0,0,657.718,1290.266Z" fill="#9f9d94"/>
    </g>
    <g id="Group_52" >
      <path id="Path_958"  d="M657.718,1290.266a13.9,13.9,0,1,0-13.905,13.905A13.9,13.9,0,0,0,657.718,1290.266Z" fill="#2a3287"/>
      <path id="Path_959"  d="M645.038,1286.973v-1.317a.7.7,0,0,1,.728-.792h1.849v-2.82l-2.546-.011a3.213,3.213,0,0,0-3.466,3.452v1.488H639.97v3.295h1.647v8.234h3.294v-8.234h2.445l.3-3.295Z" fill="#fff"/>
    </g>
  </g>
</svg>
