<svg xmlns="http://www.w3.org/2000/svg" width="32.302" height="33.309" viewBox="0 0 32.302 33.309">
  <g id="Group_45"  transform="translate(-698.528 -1276.362)">
    <g id="Group_42" >
      <path id="Path_824"  d="M730.83,1295.766a13.9,13.9,0,1,0-13.9,13.905A13.9,13.9,0,0,0,730.83,1295.766Z" fill="#9f9d94" opacity="0"/>
      <path id="Path_825"  d="M730.72,1295.632a13.9,13.9,0,1,0-13.9,13.905A13.9,13.9,0,0,0,730.72,1295.632Z" fill="#9f9d94" opacity="0.024"/>
      <path id="Path_826"  d="M730.611,1295.5a13.9,13.9,0,1,0-13.9,13.9A13.9,13.9,0,0,0,730.611,1295.5Z" fill="#9f9d94" opacity="0.049"/>
      <path id="Path_827"  d="M730.5,1295.364a13.9,13.9,0,1,0-13.9,13.9A13.9,13.9,0,0,0,730.5,1295.364Z" fill="#9f9d94" opacity="0.073"/>
      <path id="Path_828"  d="M730.391,1295.229a13.9,13.9,0,1,0-13.9,13.905A13.9,13.9,0,0,0,730.391,1295.229Z" fill="#9f9d94" opacity="0.098"/>
      <path id="Path_829"  d="M730.282,1295.095a13.9,13.9,0,1,0-13.9,13.905A13.9,13.9,0,0,0,730.282,1295.095Z" fill="#9f9d94" opacity="0.122"/>
      <path id="Path_830"  d="M730.172,1294.961a13.9,13.9,0,1,0-13.9,13.9A13.9,13.9,0,0,0,730.172,1294.961Z" fill="#9f9d94" opacity="0.146"/>
      <path id="Path_831"  d="M730.063,1294.827a13.9,13.9,0,1,0-13.9,13.905A13.9,13.9,0,0,0,730.063,1294.827Z" fill="#9f9d94" opacity="0.171"/>
      <path id="Path_832"  d="M729.953,1294.693a13.9,13.9,0,1,0-13.9,13.905A13.9,13.9,0,0,0,729.953,1294.693Z" fill="#9f9d94" opacity="0.195"/>
      <path id="Path_833"  d="M729.844,1294.559a13.9,13.9,0,1,0-13.9,13.9A13.9,13.9,0,0,0,729.844,1294.559Z" fill="#9f9d94" opacity="0.22"/>
      <path id="Path_834"  d="M729.734,1294.425a13.9,13.9,0,1,0-13.9,13.9A13.9,13.9,0,0,0,729.734,1294.425Z" fill="#9f9d94" opacity="0.244"/>
      <path id="Path_835"  d="M729.624,1294.291a13.9,13.9,0,1,0-13.9,13.9A13.9,13.9,0,0,0,729.624,1294.291Z" fill="#9f9d94" opacity="0.268"/>
      <path id="Path_836"  d="M729.515,1294.156a13.9,13.9,0,1,0-13.9,13.905A13.9,13.9,0,0,0,729.515,1294.156Z" fill="#9f9d94" opacity="0.293"/>
      <path id="Path_837"  d="M729.405,1294.022a13.9,13.9,0,1,0-13.9,13.905A13.9,13.9,0,0,0,729.405,1294.022Z" fill="#9f9d94" opacity="0.317"/>
      <path id="Path_838"  d="M729.3,1293.888a13.9,13.9,0,1,0-13.9,13.905A13.9,13.9,0,0,0,729.3,1293.888Z" fill="#9f9d94" opacity="0.341"/>
      <path id="Path_839"  d="M729.186,1293.754a13.9,13.9,0,1,0-13.9,13.905A13.9,13.9,0,0,0,729.186,1293.754Z" fill="#9f9d94" opacity="0.366"/>
      <path id="Path_840"  d="M729.077,1293.62a13.9,13.9,0,1,0-13.9,13.905A13.9,13.9,0,0,0,729.077,1293.62Z" fill="#9f9d94" opacity="0.39"/>
      <path id="Path_841"  d="M728.967,1293.486a13.9,13.9,0,1,0-13.9,13.9A13.9,13.9,0,0,0,728.967,1293.486Z" fill="#9f9d94" opacity="0.415"/>
      <path id="Path_842"  d="M728.857,1293.352a13.9,13.9,0,1,0-13.9,13.9A13.9,13.9,0,0,0,728.857,1293.352Z" fill="#9f9d94" opacity="0.439"/>
      <path id="Path_843"  d="M728.748,1293.217a13.9,13.9,0,1,0-13.9,13.9A13.9,13.9,0,0,0,728.748,1293.217Z" fill="#9f9d94" opacity="0.463"/>
      <path id="Path_844"  d="M728.638,1293.083a13.9,13.9,0,1,0-13.9,13.905A13.9,13.9,0,0,0,728.638,1293.083Z" fill="#9f9d94" opacity="0.488"/>
      <path id="Path_845"  d="M728.529,1292.949a13.9,13.9,0,1,0-13.9,13.905A13.9,13.9,0,0,0,728.529,1292.949Z" fill="#9f9d94" opacity="0.512"/>
      <path id="Path_846"  d="M728.419,1292.815a13.9,13.9,0,1,0-13.9,13.905A13.9,13.9,0,0,0,728.419,1292.815Z" fill="#9f9d94" opacity="0.537"/>
      <path id="Path_847"  d="M728.31,1292.681a13.9,13.9,0,1,0-13.9,13.905A13.9,13.9,0,0,0,728.31,1292.681Z" fill="#9f9d94" opacity="0.561"/>
      <path id="Path_848"  d="M728.2,1292.547a13.9,13.9,0,1,0-13.9,13.9A13.9,13.9,0,0,0,728.2,1292.547Z" fill="#9f9d94" opacity="0.585"/>
      <path id="Path_849"  d="M728.09,1292.413a13.9,13.9,0,1,0-13.9,13.9A13.9,13.9,0,0,0,728.09,1292.413Z" fill="#9f9d94" opacity="0.61"/>
      <path id="Path_850"  d="M727.981,1292.278a13.9,13.9,0,1,0-13.9,13.905A13.9,13.9,0,0,0,727.981,1292.278Z" fill="#9f9d94" opacity="0.634"/>
      <path id="Path_851"  d="M727.871,1292.144a13.9,13.9,0,1,0-13.9,13.9A13.9,13.9,0,0,0,727.871,1292.144Z" fill="#9f9d94" opacity="0.659"/>
      <path id="Path_852"  d="M727.762,1292.01a13.9,13.9,0,1,0-13.9,13.905A13.9,13.9,0,0,0,727.762,1292.01Z" fill="#9f9d94" opacity="0.683"/>
      <path id="Path_853"  d="M727.652,1291.876a13.9,13.9,0,1,0-13.9,13.905A13.9,13.9,0,0,0,727.652,1291.876Z" fill="#9f9d94" opacity="0.707"/>
      <path id="Path_854"  d="M727.543,1291.742a13.905,13.905,0,1,0-13.9,13.905A13.9,13.9,0,0,0,727.543,1291.742Z" fill="#9f9d94" opacity="0.732"/>
      <path id="Path_855"  d="M727.433,1291.608a13.9,13.9,0,1,0-13.9,13.9A13.9,13.9,0,0,0,727.433,1291.608Z" fill="#9f9d94" opacity="0.756"/>
      <path id="Path_856"  d="M727.323,1291.474a13.9,13.9,0,1,0-13.9,13.9A13.9,13.9,0,0,0,727.323,1291.474Z" fill="#9f9d94" opacity="0.78"/>
      <path id="Path_857"  d="M727.214,1291.34a13.9,13.9,0,1,0-13.9,13.9A13.9,13.9,0,0,0,727.214,1291.34Z" fill="#9f9d94" opacity="0.805"/>
      <path id="Path_858"  d="M727.1,1291.2a13.9,13.9,0,1,0-13.9,13.905A13.9,13.9,0,0,0,727.1,1291.2Z" fill="#9f9d94" opacity="0.829"/>
      <path id="Path_859"  d="M726.995,1291.071a13.9,13.9,0,1,0-13.9,13.9A13.9,13.9,0,0,0,726.995,1291.071Z" fill="#9f9d94" opacity="0.854"/>
      <path id="Path_860"  d="M726.885,1290.937a13.9,13.9,0,1,0-13.9,13.905A13.9,13.9,0,0,0,726.885,1290.937Z" fill="#9f9d94" opacity="0.878"/>
      <path id="Path_861"  d="M726.776,1290.8a13.9,13.9,0,1,0-13.9,13.905A13.9,13.9,0,0,0,726.776,1290.8Z" fill="#9f9d94" opacity="0.902"/>
      <path id="Path_862"  d="M726.666,1290.669a13.9,13.9,0,1,0-13.9,13.905A13.9,13.9,0,0,0,726.666,1290.669Z" fill="#9f9d94" opacity="0.927"/>
      <path id="Path_863"  d="M726.556,1290.535a13.9,13.9,0,1,0-13.9,13.9A13.9,13.9,0,0,0,726.556,1290.535Z" fill="#9f9d94" opacity="0.951"/>
      <path id="Path_864"  d="M726.447,1290.4a13.9,13.9,0,1,0-13.9,13.9A13.9,13.9,0,0,0,726.447,1290.4Z" fill="#9f9d94" opacity="0.976"/>
      <path id="Path_865"  d="M726.337,1290.266a13.9,13.9,0,1,0-13.9,13.905A13.9,13.9,0,0,0,726.337,1290.266Z" fill="#9f9d94"/>
    </g>
    <g id="Group_44" >
      <path id="Path_866"  d="M726.337,1290.266a13.9,13.9,0,1,0-13.9,13.905A13.9,13.9,0,0,0,726.337,1290.266Z" fill="#4768ae"/>
      <g id="Group_43" >
        <rect id="Rectangle_17"  width="3.219" height="9.199" transform="translate(705.812 1286.873)" fill="#fff"/>
        <path id="Path_867"  d="M707.422,1282.274a1.611,1.611,0,1,0,1.609,1.609A1.611,1.611,0,0,0,707.422,1282.274Z" fill="#fff"/>
        <path id="Path_868"  d="M719.61,1289.7c-.217-1.734-1.084-2.826-3.428-2.826-1.663,0-2.325.26-2.706.986h0v-.986H710.87v9.2h2.682v-4.815c0-1.2.227-2.11,1.714-2.11,1.465,0,1.582,1.117,1.582,2.188v4.737h2.762S719.661,1290.1,719.61,1289.7Z" fill="#fff"/>
      </g>
    </g>
  </g>
</svg>
