<svg xmlns="http://www.w3.org/2000/svg" width="32.336" height="33.346" viewBox="0 0 32.336 33.346">
  <defs>
    <linearGradient id="linear-gradient" x1="-115.931" y1="-80.762" x2="-115.275" y2="-80.008">
      <stop offset="0" stop-color="#3a2b90"/>
      <stop offset="0.424" stop-color="#8f238d"/>
      <stop offset="0.488" stop-color="#9a2185"/>
      <stop offset="0.602" stop-color="#b91d70"/>
      <stop offset="0.753" stop-color="#ec164e"/>
      <stop offset="0.785" stop-color="#f81547"/>
      <stop offset="0.814" stop-color="#f82345"/>
      <stop offset="0.87" stop-color="#f94a42"/>
      <stop offset="0.947" stop-color="#fc883d"/>
      <stop offset="1" stop-color="#feb73a"/>
    </linearGradient>
  </defs>
  <g id="Group_50"  transform="translate(-663.196 -1276.343)">
    <g id="Group_46" >
      <path id="Path_869"  d="M681.61,1281.843a13.923,13.923,0,1,0,13.922,13.925A13.923,13.923,0,0,0,681.61,1281.843Z" fill="#9f9d94" opacity="0"/>
      <path id="Path_870"  d="M681.5,1281.709a13.923,13.923,0,1,0,13.922,13.924A13.923,13.923,0,0,0,681.5,1281.709Z" fill="#9f9d94" opacity="0.024"/>
      <path id="Path_871"  d="M681.391,1281.575a13.923,13.923,0,1,0,13.922,13.924A13.923,13.923,0,0,0,681.391,1281.575Z" fill="#9f9d94" opacity="0.049"/>
      <path id="Path_872"  d="M681.282,1281.44a13.924,13.924,0,1,0,13.921,13.925A13.924,13.924,0,0,0,681.282,1281.44Z" fill="#9f9d94" opacity="0.073"/>
      <path id="Path_873"  d="M681.172,1281.306a13.923,13.923,0,1,0,13.922,13.925A13.924,13.924,0,0,0,681.172,1281.306Z" fill="#9f9d94" opacity="0.098"/>
      <path id="Path_874"  d="M681.062,1281.172a13.923,13.923,0,1,0,13.922,13.925A13.923,13.923,0,0,0,681.062,1281.172Z" fill="#9f9d94" opacity="0.122"/>
      <path id="Path_875"  d="M680.953,1281.038a13.923,13.923,0,1,0,13.922,13.925A13.924,13.924,0,0,0,680.953,1281.038Z" fill="#9f9d94" opacity="0.146"/>
      <path id="Path_876"  d="M680.843,1280.9a13.923,13.923,0,1,0,13.922,13.925A13.923,13.923,0,0,0,680.843,1280.9Z" fill="#9f9d94" opacity="0.171"/>
      <path id="Path_877"  d="M680.734,1280.77a13.923,13.923,0,1,0,13.922,13.924A13.924,13.924,0,0,0,680.734,1280.77Z" fill="#9f9d94" opacity="0.195"/>
      <path id="Path_878"  d="M680.624,1280.636a13.923,13.923,0,1,0,13.922,13.924A13.923,13.923,0,0,0,680.624,1280.636Z" fill="#9f9d94" opacity="0.22"/>
      <path id="Path_879"  d="M680.515,1280.5a13.923,13.923,0,1,0,13.921,13.924A13.923,13.923,0,0,0,680.515,1280.5Z" fill="#9f9d94" opacity="0.244"/>
      <path id="Path_880"  d="M680.405,1280.367a13.924,13.924,0,1,0,13.922,13.925A13.924,13.924,0,0,0,680.405,1280.367Z" fill="#9f9d94" opacity="0.268"/>
      <path id="Path_881"  d="M680.295,1280.233a13.923,13.923,0,1,0,13.922,13.925A13.923,13.923,0,0,0,680.295,1280.233Z" fill="#9f9d94" opacity="0.293"/>
      <path id="Path_882"  d="M680.186,1280.1a13.923,13.923,0,1,0,13.922,13.925A13.924,13.924,0,0,0,680.186,1280.1Z" fill="#9f9d94" opacity="0.317"/>
      <path id="Path_883"  d="M680.076,1279.965A13.923,13.923,0,1,0,694,1293.89,13.923,13.923,0,0,0,680.076,1279.965Z" fill="#9f9d94" opacity="0.341"/>
      <path id="Path_884"  d="M679.967,1279.831a13.923,13.923,0,1,0,13.921,13.925A13.924,13.924,0,0,0,679.967,1279.831Z" fill="#9f9d94" opacity="0.366"/>
      <path id="Path_885"  d="M679.857,1279.7a13.923,13.923,0,1,0,13.922,13.924A13.923,13.923,0,0,0,679.857,1279.7Z" fill="#9f9d94" opacity="0.39"/>
      <path id="Path_886"  d="M679.748,1279.563a13.923,13.923,0,1,0,13.921,13.924A13.923,13.923,0,0,0,679.748,1279.563Z" fill="#9f9d94" opacity="0.415"/>
      <path id="Path_887"  d="M679.638,1279.428a13.924,13.924,0,1,0,13.922,13.925A13.924,13.924,0,0,0,679.638,1279.428Z" fill="#9f9d94" opacity="0.439"/>
      <path id="Path_888"  d="M679.528,1279.294a13.924,13.924,0,1,0,13.922,13.925A13.923,13.923,0,0,0,679.528,1279.294Z" fill="#9f9d94" opacity="0.463"/>
      <path id="Path_889"  d="M679.419,1279.16a13.923,13.923,0,1,0,13.922,13.925A13.924,13.924,0,0,0,679.419,1279.16Z" fill="#9f9d94" opacity="0.488"/>
      <path id="Path_890"  d="M679.309,1279.026a13.923,13.923,0,1,0,13.922,13.925A13.923,13.923,0,0,0,679.309,1279.026Z" fill="#9f9d94" opacity="0.512"/>
      <path id="Path_891"  d="M679.2,1278.892a13.923,13.923,0,1,0,13.921,13.925A13.924,13.924,0,0,0,679.2,1278.892Z" fill="#9f9d94" opacity="0.537"/>
      <path id="Path_892"  d="M679.09,1278.758a13.923,13.923,0,1,0,13.922,13.924A13.923,13.923,0,0,0,679.09,1278.758Z" fill="#9f9d94" opacity="0.561"/>
      <path id="Path_893"  d="M678.98,1278.624a13.923,13.923,0,1,0,13.922,13.924A13.923,13.923,0,0,0,678.98,1278.624Z" fill="#9f9d94" opacity="0.585"/>
      <path id="Path_894"  d="M678.871,1278.49a13.923,13.923,0,1,0,13.922,13.924A13.923,13.923,0,0,0,678.871,1278.49Z" fill="#9f9d94" opacity="0.61"/>
      <path id="Path_895"  d="M678.761,1278.355a13.924,13.924,0,1,0,13.922,13.925A13.923,13.923,0,0,0,678.761,1278.355Z" fill="#9f9d94" opacity="0.634"/>
      <path id="Path_896"  d="M678.652,1278.221a13.924,13.924,0,1,0,13.922,13.925A13.924,13.924,0,0,0,678.652,1278.221Z" fill="#9f9d94" opacity="0.659"/>
      <path id="Path_897"  d="M678.542,1278.087a13.923,13.923,0,1,0,13.922,13.925A13.923,13.923,0,0,0,678.542,1278.087Z" fill="#9f9d94" opacity="0.683"/>
      <path id="Path_898"  d="M678.433,1277.953a13.923,13.923,0,1,0,13.921,13.925A13.924,13.924,0,0,0,678.433,1277.953Z" fill="#9f9d94" opacity="0.707"/>
      <path id="Path_899"  d="M678.323,1277.819a13.923,13.923,0,1,0,13.922,13.925A13.924,13.924,0,0,0,678.323,1277.819Z" fill="#9f9d94" opacity="0.732"/>
      <path id="Path_900"  d="M678.213,1277.685a13.923,13.923,0,1,0,13.922,13.924A13.922,13.922,0,0,0,678.213,1277.685Z" fill="#9f9d94" opacity="0.756"/>
      <path id="Path_901"  d="M678.1,1277.551a13.923,13.923,0,1,0,13.922,13.924A13.923,13.923,0,0,0,678.1,1277.551Z" fill="#9f9d94" opacity="0.78"/>
      <path id="Path_902"  d="M677.994,1277.416a13.923,13.923,0,1,0,13.922,13.925A13.923,13.923,0,0,0,677.994,1277.416Z" fill="#9f9d94" opacity="0.805"/>
      <path id="Path_903"  d="M677.885,1277.282a13.924,13.924,0,1,0,13.922,13.925A13.924,13.924,0,0,0,677.885,1277.282Z" fill="#9f9d94" opacity="0.829"/>
      <path id="Path_904"  d="M677.775,1277.148a13.923,13.923,0,1,0,13.922,13.925A13.924,13.924,0,0,0,677.775,1277.148Z" fill="#9f9d94" opacity="0.854"/>
      <path id="Path_905"  d="M677.666,1277.014a13.923,13.923,0,1,0,13.921,13.925A13.924,13.924,0,0,0,677.666,1277.014Z" fill="#9f9d94" opacity="0.878"/>
      <path id="Path_906"  d="M677.556,1276.88a13.923,13.923,0,1,0,13.922,13.925A13.924,13.924,0,0,0,677.556,1276.88Z" fill="#9f9d94" opacity="0.902"/>
      <path id="Path_907"  d="M677.446,1276.746a13.923,13.923,0,1,0,13.922,13.924A13.922,13.922,0,0,0,677.446,1276.746Z" fill="#9f9d94" opacity="0.927"/>
      <path id="Path_908"  d="M677.337,1276.612a13.923,13.923,0,1,0,13.922,13.924A13.923,13.923,0,0,0,677.337,1276.612Z" fill="#9f9d94" opacity="0.951"/>
      <path id="Path_909"  d="M677.227,1276.477a13.923,13.923,0,1,0,13.922,13.925A13.923,13.923,0,0,0,677.227,1276.477Z" fill="#9f9d94" opacity="0.976"/>
      <path id="Path_910"  d="M677.118,1276.343a13.923,13.923,0,1,0,13.922,13.925A13.924,13.924,0,0,0,677.118,1276.343Z" fill="#9f9d94"/>
    </g>
    <g id="Group_49" >
      <path id="Path_911"  d="M677.118,1276.343a13.923,13.923,0,1,0,13.922,13.925A13.924,13.924,0,0,0,677.118,1276.343Z" fill="url(#linear-gradient)"/>
      <g id="Group_48" >
        <path id="Path_912"  d="M673.133,1297.02Zm7.969-14.111Z" fill="none" stroke="#fff" stroke-miterlimit="10" stroke-width="1"/>
        <g id="Group_47" >
          <path id="Path_913"  d="M677.118,1295.238a4.971,4.971,0,1,0-4.972-4.97A4.977,4.977,0,0,0,677.118,1295.238Zm-3.766-4.97a3.766,3.766,0,1,1,3.766,3.766A3.772,3.772,0,0,1,673.352,1290.268Z" fill="#fff"/>
        </g>
        <path id="Path_914"  d="M682.076,1298.525h-9.917a3.379,3.379,0,0,1-3.375-3.376v-9.765a3.379,3.379,0,0,1,3.375-3.375h9.917a3.38,3.38,0,0,1,3.376,3.375v9.765A3.38,3.38,0,0,1,682.076,1298.525Zm-9.917-15.285a2.146,2.146,0,0,0-2.143,2.144v9.765a2.146,2.146,0,0,0,2.143,2.144h9.917a2.147,2.147,0,0,0,2.144-2.144v-9.765a2.147,2.147,0,0,0-2.144-2.144Z" fill="#fff"/>
      </g>
      <path id="Path_915"  d="M682.157,1284.728a.785.785,0,1,0,.786.786A.786.786,0,0,0,682.157,1284.728Z" fill="#fff"/>
    </g>
  </g>
</svg>
